<mxfile host="app.diagrams.net" agent="Mozilla/5.0 (Windows NT 10.0; Win64; x64) AppleWebKit/537.36 (KHTML, like Gecko) Chrome/109.0.0.0 Safari/537.36" version="25.0.3">
  <diagram name="Page-1" id="WsfW6IZHHQDTdF3nuI0t">
    <mxGraphModel dx="3027" dy="2379" grid="1" gridSize="10" guides="1" tooltips="1" connect="1" arrows="1" fold="1" page="1" pageScale="1" pageWidth="827" pageHeight="1169" math="0" shadow="0">
      <root>
        <mxCell id="0" />
        <mxCell id="1" parent="0" />
        <mxCell id="q4BO0xPQDjEm5LAo56Z_-30" value="" style="edgeStyle=orthogonalEdgeStyle;rounded=0;orthogonalLoop=1;jettySize=auto;html=1;entryX=0.001;entryY=0.397;entryDx=0;entryDy=0;entryPerimeter=0;" edge="1" parent="1" source="q4BO0xPQDjEm5LAo56Z_-2" target="q4BO0xPQDjEm5LAo56Z_-18">
          <mxGeometry relative="1" as="geometry">
            <mxPoint x="710" y="300" as="targetPoint" />
          </mxGeometry>
        </mxCell>
        <mxCell id="q4BO0xPQDjEm5LAo56Z_-2" value="Data Lake&amp;nbsp;&lt;div&gt;Amazon S3&lt;/div&gt;" style="outlineConnect=0;dashed=0;verticalLabelPosition=bottom;verticalAlign=top;align=center;html=1;shape=mxgraph.aws3.s3;fillColor=#E05243;gradientColor=none;fontStyle=1;fontSize=22;" vertex="1" parent="1">
          <mxGeometry x="40" y="259.4" width="140" height="120.8" as="geometry" />
        </mxCell>
        <mxCell id="q4BO0xPQDjEm5LAo56Z_-7" value="&lt;b&gt;&lt;font style=&quot;font-size: 21px;&quot;&gt;Data Lake&lt;/font&gt;&lt;/b&gt;&lt;div&gt;&lt;b&gt;&lt;font style=&quot;font-size: 21px;&quot;&gt;Amazon S3&lt;/font&gt;&lt;/b&gt;&lt;/div&gt;" style="outlineConnect=0;dashed=0;verticalLabelPosition=bottom;verticalAlign=top;align=center;html=1;shape=mxgraph.aws3.s3;fillColor=#E05243;gradientColor=none;" vertex="1" parent="1">
          <mxGeometry x="1270" y="126.4" width="150" height="153" as="geometry" />
        </mxCell>
        <mxCell id="q4BO0xPQDjEm5LAo56Z_-13" value="" style="edgeStyle=orthogonalEdgeStyle;rounded=0;orthogonalLoop=1;jettySize=auto;html=1;" edge="1" parent="1" source="q4BO0xPQDjEm5LAo56Z_-10" target="q4BO0xPQDjEm5LAo56Z_-12">
          <mxGeometry relative="1" as="geometry" />
        </mxCell>
        <mxCell id="q4BO0xPQDjEm5LAo56Z_-10" value="" style="shape=image;verticalLabelPosition=bottom;labelBackgroundColor=default;verticalAlign=top;aspect=fixed;imageAspect=0;image=data:image/jpeg,/9j/4AAQSkZJRgABAQAAAQABAAD/2wCEAAkGBxMSEhUREhEREhIXFxkVFhUWFxcWGhcYFxYXFxYXGRcYHiggGB0lHBgWJjEiJSkrLi4uFyAzODMtNygtLisBCgoKDg0OGRAQGy0lICUzLS0tMSsrLjUwMTUwLS0tNS0rMS03MTEtLS4vLzEtMC0vNzAtKy01LS0tNy0vLy0tLf/AABEIAJQBVQMBIgACEQEDEQH/xAAcAAEAAgIDAQAAAAAAAAAAAAAABgcEBQECCAP/xABKEAABAwIDBAUFDAgEBwEAAAABAAIDBBEFBiEHEjFBEyJRYXFygZGSsRQWIzIzUlNUc6Gy0RU0NUKCorPBQ2LC0iQldIOjw/Bj/8QAGgEBAAMBAQEAAAAAAAAAAAAAAAMEBQECBv/EAC4RAQACAQIBCQgDAAAAAAAAAAABAgMEESEFEhQiMUFRUqETFWFxgZGx8FPB0f/aAAwDAQACEQMRAD8AvFERAREQEXSSQNBc4gAakngAoFmLNDpSY4SWRcC7g5/5BRZc1ccbys6bS3z22r2d8pLiuZ4IbtB6R/zW8vF3AKM1ecp3fEDIx4bx9J/JRtcrNvqslu/Zu4uT8OOOMbz8WzfmGqP+O/zWH9l2jzHVN/xnHxAP9lqUUXtL+M/dZ9hi8sfaEqos6yt0lja8dreqfyP3KUYVjkNRox1nfMdo70c/MqtXLXEG4JBGoI0I86nx6u9e3iqZuTcN46vCfh/i5EUPy1mneIiqCL8GycL9zu/vUwWjjyVyRvDBz4L4bc24iIpEIiIgIiICIiAiIgIiICIiAiIgIiICIiAiIgIiICIiAiIgIiICIiAiLX47X9BA+TmBZvlHQLlpiI3l6pWb2isdsopnTGt9xp2HqNPXI/ed83wHt8FFVy4km51J1JXCxMmSb250vrcGGuGkUqIiLwlEREBERAU+ybjRlb0MhvIwdU/Ob+YUBWTh9WYZGSt4tIPiOY84upcOWcdt1bVaeM2Oa9/ctxF0hlDmhw1BAI8Cu62nyk8BERAREQEREBERAREQEREBERAREQEREBERAREQEREBERAREQEREBRDaDUWbFH2kuPmFh7VL1BNoJ+Gj8g/iVfVTtile5OrvqK/X8IsuFyuFkPphERAREQEREBcrhcoLIybUb9Ky/FpLPQdPuIW8UX2fn4B4/8A0P4WqULawTvjq+U1lebnvEeIiIpVYREQEREBERAREQEREBERAREQEREBERAREQEREBERAREQEREGJide2CN0r72FtBxJJsAFXuY8ZbVOY4MLN0EakG9z3KwsUoGzxuifex5jiCNQQo37xW/Tv9Ufmqmpplvwr2NPQZdPi615631QpcKbe8Zv07vVH5qLYth7oJXROINtQRzB4FUL4b0je0NnDq8WaebSeLCREUSwIiICLZ4DhBqZCwO3QBvOda/OwAHapH7xm/Tu9UfmpaYL3jeIVsusw4rc288UJXKmvvGb9O71R+ae8Vv07vVH5r30XL4IveOn83pLV5ezI2mjMZic8lxdcOA4gC3DuW2ZnllxeF4HMhwNvNzXX3it+nd6o/NcsyMy4vO8jmA0C/n5KetdTWIiP6VMl9Be02t2z80rikDgHDUEAg9x4LuukUYaA0aAAADuGgXdaEMWdt+AiIjgiIgIiICIiAiIgIiICIiAiIgIiICIiAiIgIiICIiAiIgIiIIrmPND4JTFGxhIALi654i+gBChldVvmeZHm7j5vAAdisrE8BgqHB0jTvAWuCWkjsNuKwvedS/Nk9dyo5sGW8zx4NjS6zTYax1Z53f+7q6RWL7zqX5snruXzqMnU+6d3fa62h3ibHvB4qDoeT4LccqYJ8fsr5FyQiqtFmYXiUlO/pIyL2sQdQR2FTTLGY3VL3RyMa1wbvAtvawIBBBJ7QsDL2WIZYGyybzi65sHFoAuRbTnopFheDQ09zE0gniSSTbsueS0NPiy12nfgxNdqNPfnV263Zu0uZ80vp5eijYwkAFxffnwAAIWoGeqjnHCR4OH37yl2K4BBUEOlYS4C1w4tNuw24rCbkykv8R57i935r1kx55tM1twR4c+irjiL0nfv/d22pa4PhE9iAWb9ufC9lCZM9TkndjhDeQIcTbvIIU+ZEGtDQAGgWA5W7FopcnUjiTuPF9bB7gPML6KXNTLMRzJ+aDS5NNWbe1rv4Ndl/N0k0zYpI2AO0BZcWNr6gk3GimK1GGZbp4H9JGw7/AFzi61+Nr8Ft16w1vWvXneUWqvhvffDG0CIimVhERAREQEREBERAREQEREBERAREQEREBERAREQEREBEXzmmawXc5rR2uIHtQfRF8oalj/AIj2O8kg+xfVAUFzLmCoZUOjY/o2ttawab3AN9QVOljVWHxSG8kTHkc3NB9qizUteu1Z2WdLlpjvveu8K598tV9O71Wf7V0nx+pe0tdO4tOhADRceIF1YX6Epvq8PqBP0JTfV4fUCq9Gy+b1loRr9NHH2fpCqkVq/oSm+rw+oE/QlN9Xh9QLx0K3il97Y/LKuKLF54Ruxyua3jbQjzAg2WR75ar6d3qs/wBqn/6Epvq8PqBP0JTfV4fUC9xpcscIt+Uc8oae07zj9IQD3y1X07vVZ/tXZuZ6oG/TE25FrLHu4Ke/oSm+rw+oF2Zg9OCCIIgRqDuNXej5fP6y89O038XpDJpJC5jXEWJaCR2XC+qIr0Mie0RERwREQEREBERAREQEREBERAREQEREBERAREQEREBERAREQQPaRnR1Hangt07xvOcdejbwBtzcdbdllV1FhNZiD3OYyWodfrPcbgHsLnGw8Au+dqky19S48RK5g8GdQexXzl7DmU9PFCwABrB5yRdxPeSgobE8s1lFaWSF8QB0kYdGnl1mHq+dTvZvnqSSRtHVO33O0ilPEka7ju3Tge6ysqpgbI1zHgOa4FrgdQQdCF5wq2Gmq3NafkZiGnyH6exB6URRXPeZ5KGnimjYx5fIGEPvYAsc6+nkqPYbtSHueWWeOMShwbFFGTd923LjvXs0dqCy0VIybVK4uuBTtHzdwkekuupvkraCyscIJmthnPxbHqSdzb6g9xQTdF855msa573BrGguc4mwAGpJKq3MG1d28WUcTNwadLJc73e1gIsPE+ZBayKlaParWtdd7YJW827pYfM4HT0FWflXM0NfFvxdVzbB8Z+Mwn2g62KDdoq/z1nuahqRBHFE9pYH3fvXuSRbQ9y+OJ7ThFTQubGySpljD3NDjuR3JAueJOnD2ILGRU1T7WasOu+Gme3mGh7T5nbx9is3LGYoq6HpYrgg2ew/GY7sP9jzQUZmwOhrqloc7qzOcNTzO+PaF6EoJg+KN44OY1w/iaCqS2r0u5iL3cpGMf8Ay7h/D96tTIdVv4dTOJ4RNaf4Or/pQVLtKrnSYjMA51mbsYsTyaL8O8lYmS610OIU5cXD4URuDidN+7LEHvK+eHN914k2+vS1O+fJMhef5QvtniEwYlORpaUSj+Kz7+m66PQL3WBPZqvOVNI6orG9Zx6WcczwdJf2K98cxANoJqgHT3O5488ZI++ypbZxS9JiNMOTS55/gY4j+bdXB6AAtouVpc0ZkhoYuklJLjoyMfGee7sHaVWFbtVrHO+DZBE3kN0vPncSL+YBBdKKp8B2rv3g2riYWH/EiBBb3lhJ3h4WVqU87ZGtexwcxwDmuBuCDwIKD6IoHm7aRHTOMNO1s8o0cSbMYewkauPcPSoYdqNffe/4e3Z0Zt6d6/3oLvRQPJm0ZlU8QTsbDM7Rpaeo89gvq09xvdfLPWfZqGp6COKF7eja+7y693Fwtoe5Bqc1bR6qmqp4I2QFkbrNLmuJ+KDrZ3erSpJC5jHHiWgnzgFea8bxB1VNLO8BrpTcht7DQDS/gprS7VqloYz3PT2G63i+9tB2ro3O2x5EdNYkdd/AkfujsWTsWcTSzXJPw54m/wDhxrE23fJ03lv/AAhajI2ao8PoJnOG/K6oIZGDYn4KO5J5NHauC5EVMHazWb1xFS7vzbP/ABb/APZT/Jec4q8Fu70U7Rd0ZN7jhvNPMXt4XQShFiYpiMdPE6aZ4ZG0XJP3AdpPYqqxfaxO5xFNFHGzk6QF7j32BAb4aoLgRU1hm1eqa4dNHDKznugscPA3IPgQrVwPGIquETwu3mnQjm1w4tcORCDYIqwzRtJqKWqmp2QQObG6wLi+56oOtj3rvmLal0T+jpoo5bAb0jnEsLiASGBvEC9r3QWYi0GR8cfW0oqJGsa4uc2zL2s02HElEFG5m/Xan/qJP6hXo2m+I3yR7FQG0CgMNfODoHu6Vp7Q/W/pv6FcuTcwRVdOxzXjpGtDZGX1a4Cx07OYKDfLzfmn9dqft5PxlegcZxeKlidNM8Na0X7yeQA4klefKdjqysAA60017dm87ePoF/QgsvbD+o032zf6Mii2zDLEdZM98w3oog3q8nPdewPcADp3hSzbQ21HAOycD/xSLRbHcZjillp5HBvS7rmE6AubcFviQRbwKCzKvLdJIzonU0O5a1g0AjwI1BVE5kw11BWPiY43jc18budtHMJtzH9l6JkeGgucQANSToAPFefM9Yq2rrZZYuszRjCP3g0WuPE3QTnaZjxfh1OGm3undc+3zQ0OI8N6yjOzyfD4nPmrXt6QECNjmucALavsARflr2Ld7SMHdHh1EbfIhrH928wD8QstRs6wCirekjqC8TtO80Nfu7zLa2HMg+0IJJmjGcGqoHs6SNsliY3tje0tcBpqG8O5Q7ZliDosQiAOkt4nDtBFx6CAp/V7NsNiY6SQzMY0XLjKQAB5ljZNwDCZXsqKSSUyRne3HvIc08Osw8R9yCM7Yf15v2Lfa5SPZjlGnNM2qmjbLJISW74uGNBsLA6XNr3Uc2w/rzfsW+1ysnZ5+zqbyP7lBotpOVKb3JJURxMiliAddgDd5twHBwGh0P3KL7G6strHx36r4iSO9jhY+glWLtC/ZtV9mfaFWWyD9of9l/tag2u2umtLTy24tcwnwII9pWfkvFOjwSd19YulA/iF2/iWVtnpt6kik+ZMB5ntcPaGqvMOxbcw2qp7gOklisO0G5ef5B6Qg2Gyaj38QY62kbHv89g0fiWZtkpN2sZJykiHpY4g/cWrZ7EqTrVM3cyMfzOd/pWZtro7w081viPcwnue0H2sCDpiGKb2Xmuvq5jIT4iTdP3NK0uxql3qySS3xIred7gPYCtCcV/5UKbe6wqi63+Qxh1/DeupxsTpvg6iXte1g/hbc/iXRDtpWJOmr5gT1Yj0TB2BoG96XE/cppljGcGpIGR9LG6TdHSPdE8lzrdbUt4X4BQXaFROixCoBGjndI3vDwD7d4eZT3AchYZVQRzxmYhzQT8Keq63WaRbQg3QRHaHPh8rmTUT275JErGtc0HS7X2IAvxGncpjshrTNRy07ybRu3QQSCGSNvYHlY71liY/lLB6Lc90Pnbvu3QA9ziO1xAFw0dvet1T0dNhlDU1VC4yBzA8Ev6QFzQQw+HW1XBH3ZBo6SqElTVx+5R1hHK4Ne519Gu+e3n32Ujqc4YQ1hjMsLmWtuNjLhbssG2VUZew5+JVjY5ZjvPu58jtXEN1IaO3sHBWZHstoWC8j53AC5JkDB3nqgW9KCpMUmjbUyPpiRE2TeiJuCACHDQ6ixXoSTCKecNkmgikeWt6zmgm1r2ufErzzjoiE8wp/kA4iPUnqjQG51N9T516Tovk2eS32BB55z1C2OtqmMaGNa+zWtFgOo06DkrvoMuUhjjJpYL7jTfcbxsNeCpPaH+v1fl/+tq9AYafgo/Ib+ELorvbd8nTeW/8IWp2U5XhqTJUTsEjY3BjWH4pdYOJI52BGnetttu+TpvLf+ELK2Kfqk325/pxrg32YcnUk8D29BHG8NJY9jQ1zSBccOI7lUGQah0eIU5BsS/cPeHAgj/7sXoCp+I7yT7F56yf+0Kf7Ye0oJhtpxFxkhpgeoAZXDtcbtbfwG96VjbPq7C6aLpKl7DUuJuHMc7caDoB1SNeJK77aaIieGa3Vewsv/mab29B+5c5AypQV1PvSGXp2EiRrZC3n1XBvYR7Cg759xHCqqAugkYKltiwtjc3e11aeqAdO1fDYziDm1MkF+pIzft/mYQL+g/ct9jOQ8LpYnTTGdrGj6Q3J5NaOZKz8kYBhzXCropHvO6Wm7yd3etcOYRcHQcUFYbQj/zGp8sfgarTypkakjp4zJBHNK5oc97xvauF7AHQAcFVe0P9oVXl/wChqvvC/kYvs2/hCDtQ0UcLejijZGy5O60AC546BFkIgjGd8oR4gwG4jnYDuSWuLH91w5tv6FU9ZkrEad2kEht+/C7eB8CLH7lf6IPPkOU8RncAaecn50psB53nRWbkLIgoj08zmyVJFhu/FjB4hpPEntU2RBXm2v8AVIftx/SkUHyplI19PO6JwbPE9m5c2a4FpJaew3AsVONtZ/4SH/qB/SkWLsQ+TqvLZ+FyCGVWBYofgnxVjhw3S5zm+2yl2RNnT2SNqaxrRuEOjhvc7w1Dn200PAa8NVaSIMbEqFk8T4ZW70bxuuHd/YjjfuVNY5s7rKaQvpg6aMG7HRndkb4jTXvCu5EFAvwTFamzHx1cg7JHHdHrGysXZ/kT3GfdE5a+oIsA3VsYPEA83Ht9CnKIKr2mZYq6mrEkEBkZ0bW3BaNQXXGp71Ocl0T4aKCKVu5I1lnN0Njc9i3aINLnSjfNQ1EUTd6R7CGt0FzcdqgezXK1XTVnSzwGNnRvbvEtOpLbDQ9xVrIgj2fsLfVUMsUbd6TquYNBcteDz7gVUHvDxD6q71mfmvQCIIns0wWSkpCyZm5K6Rz3NuD2BvDuAWTtAwl9VRSRRt35LtcxuguWuHM911I0Qef/AHh4h9Vd6zPzVrbNsHkpaMRzM3JHSPe5uhtc2bqO5o9KlSIIvnjKDK+MEERzs+I8jQjm11uXsVWOy3ilI4iOOob/AJoHEtd6p9oV9ogojD8j4jVyXkY+MH40s7iTbuFy4+CtrDsrQQ0bqEAmN7XB55uLhq49/wCQW9RBQ2K5Er6WS8bHytBuyWE69xIGrSsqkwHF60iKV9S2InrOme4NA59W93HusrvRBReO7Pqts8raene+EG0bi5uo3Rc6nturvpWkMaDxDQD5gvqiCps/ZDqZKp9TTNErJLFzd4BzXAAHQ8Qbcl8cl5ZxGGsgfNHK2FpO9eQFoG6QOrvdtuSt9EED2rYHUVTIBTxGQte4usQLAtAHErI2WYNPS08rKiMxudMXAEg3G4wX0PaCpoiD5zi7XAcSD7FTGWcm10VbBK+nc1jZQ5zt5ugvx0KutEGrzHgcVbA6CUaHVrhxY4cHDv1PmJVO1+R8RpJN6Jr3gfFlgcQbd4uHDw1CvZEFBty1ilW4CSOoefnTOIDfWOnmCtTI2UGUEZJcJJ3233jgAODW93fzUoRBTGdMnVs1bUSxU7nse67XbzRcboHM9yt+gYWxRtIsQxoI7w0XWQiAiIgIiICIiDGraGKYBssbJGg3Ae0OANrXsediVxQ4dFDcRRRxA6ncaG3twvbiiIMpERAREQEREBERAREQEREBERAREQEREBERAREQEREBERAREQEREBERAREQEREBERB//9k=;" vertex="1" parent="1">
          <mxGeometry x="40" y="34" width="202.76" height="88" as="geometry" />
        </mxCell>
        <mxCell id="q4BO0xPQDjEm5LAo56Z_-11" value="API" style="rounded=0;whiteSpace=wrap;html=1;strokeWidth=0;strokeColor=none;fontStyle=1;spacing=2;fontSize=22;" vertex="1" parent="1">
          <mxGeometry x="170" y="50" width="86" height="20" as="geometry" />
        </mxCell>
        <mxCell id="q4BO0xPQDjEm5LAo56Z_-12" value="Transformation" style="whiteSpace=wrap;html=1;verticalAlign=top;labelBackgroundColor=default;fontStyle=1;fontSize=15;" vertex="1" parent="1">
          <mxGeometry x="390" y="32" width="210" height="90" as="geometry" />
        </mxCell>
        <mxCell id="q4BO0xPQDjEm5LAo56Z_-14" value="" style="shape=image;verticalLabelPosition=bottom;labelBackgroundColor=default;verticalAlign=top;aspect=fixed;imageAspect=0;image=data:image/jpeg,/9j/4AAQSkZJRgABAQAAAQABAAD/2wCEAAkGBxANDw0OEA0PDQ8PEBAOEA8NDxAPDQ0NFxEWFhYRFRgaHiggGBolGxMVITEhJykvLjEuFx8zOTMuNyk5LjcBCgoKDg0OGxAQGCsmHSUtMistKy0zLy8rLS4rKysrLS0tLSsyNy0tLS0vLS0rLS0tMjcrLS0tLSstLS0tLS0tLf/AABEIAOsA1gMBEQACEQEDEQH/xAAcAAEAAgMBAQEAAAAAAAAAAAAAAQIEBQYHAwj/xABMEAACAQIBBQkJDAgHAQAAAAAAAQIDEQQFBhIhMRNBUVRhcYGRsQcUIjJSoaLB0RczU2JjcnOTlLPS4xUkNIKSsuHwFiM1QoPC8SX/xAAaAQEBAAMBAQAAAAAAAAAAAAAAAQIEBQMG/8QAOhEBAAECAgQLBwMDBQAAAAAAAAECAwQREiExUgUTFDJBUWFxgaGxM2KRwdHh8BU0oiJCUyMkY3Lx/9oADAMBAAIRAxEAPwD3EAAAAAAADR5azpw2Dbg5OrVW2nSs3F/GeyPNt5D3t4euvX0PC5iKKNXS5TG5+4id1SpUqK5b1J9epeY26cHRG2c2pVjK52Rk02IzlxtTxsXVX0dqf8qR6xYtx/a8Zv3J/uYFXKFeXjYitL51Wcu1npFFMdEMNOrrljTm3tbfO2ypmqptbG1zOwH0hj60fFr1o/Nqzj2Mx0aZ6IZadXXLLoZyY2n4uMr/AL890/nuYTZtz/bDOL1yNlUtxk/uhYum0qsaeJjv3W5VH0x1eieVWEonZqetOLrjbrdzkDObDY9WpycKqV3RqWVRLhW9Jcq6bGlcs1W9uxu271NzZtbo8nqAAAAAAAAAAAAAAAAAHM58ZclhKUaVKWjVrX8JbadNbZLgbukungNrDWorqznZDVxV2aKco2y8ybOm5jNwWRsTiI6dLD1KkfKStF8zdk+g86rtFOqZelNquqM4hh4vDVKMnCrTnSmtejOLi7cK4VymVNUVRnEsaqZpnKYfBsyYqtkVVsCrYFWFVYE06soSjOEnCcWpRlF2lGS3094kxnqkictcPXcyM5f0hScalliKNlUtqVSL2VEujWt586OZfs8XOrY6li9xka9sOlNd7gAAAAAAAAAAAAAAADy/ugVtLHTj8HTpw8zn/wBzqYSMrbl4uc7jXZs4COKxdCjPXBtymuGEYuWj02S6T0vV6FEzDzs0adcRL2CEVFKKSSSSSSsklsSOO7DS545MhicHWulp0oSrU5f7oyirtczSs/6Hth65prjteOIoiuiex4+2dZyVWwKtgVYVVgVbIKtgbnM3KDw2Pws09U5qhNcMKjUdfIpOL/dPK/TpW5+L1s1aNyJ8Pi9uOS6wAAAAAAAAAAAAAAAA8nz4f/0MT/xfcwOthvZR+dLk4n2s/nQ12RMovCYijXS0lCXhRW2UGnGSXLZvpsZ3KNOmaWFuvQqip7Bk/H0sTBVKNSNSL8l64vga2p8jORVRVTOUw69NdNUZxLns+M4aVChVw0JqderF03GLvuUJK0pS4HZuy26zYw9maqoqnZDXxN6KaZpjbLyxs6TmqtgVbCqsCGwKtkFWwr75Mf6xhvp6P3kTGvmz3LRzo736BOM7IAAAAAAAAAAAAAAAA8mz5/1DE/8AF9zA62G9lH50uTifaz+dDQNnu8FbkVQCrYFWwqGBVsCrZBVsKq2B98mP9Yw309H7yJjXzZ7lo50d79BnGdkAAAAAAAAAAAAAAAAcjl3Mp4zEVcR30qe6aHgbjp6OjCMdumr+LwG3axWhTFOTUu4XTqmrS8mv9zh8eX2b8w9OW+75/Z58i97y+6Pc3fHl9m/MJy33fP7HIve8vuj3NXx9fZvzBy33fP7HIve8vuj3NHx9fZvzBy33fP7LyL3vL7o9zN8fX2b8wct93z+xyOd7y+7g8bQ3KrWpX0tyqVKela2loycb23thuUznES06oymYY7ZUVbAq2FVbAyMlv9Yw309H7yJjXzZ7mVHOjvfoQ4zsAAAAAAAAAABWpUUE5Skoxim3KTSjFcLe8WIz2JM5bXI5Wz7pU244em67WrdJNwpX5N+Xm5zbt4OqddU5NS5jKY1Uxm53EZ646eypTpclOlFr0rmxGFtx0NacVcnpY7zwyhxp/VUPwGXJrW76pym7veiHnhlDjT+pofgHJrW76nKbu96KvPHKHG39TQ/AOTWt31OU3d70Q88socbf1OH/AAE5Na3fU5Rd3vRV555R42/qcP8AgHJrW76nKLu96KvPTKPG39Th/wAA5Na3fVeUXd70Q89Mo8bf1OH/AADk1rd9TlF3e9EPPXKPHH9Th/wDk9rd9TlF3e9Ghr1pVJTnJ3lOUpydkryk7t2Wraz2iMoyh5TOc5y+TYRVsKo2BVsDIyX+0Yb6ej95Exr5s9zKnnR3vf8AGVHGN07O6PmcfdrtWtKicpzdy1TFVWUsLvqfleaPsONy/Eb/AJR9GzxVHUd9T8rzR9g5fiN/yj6HFUdS0cbNbbS51Y9KOE71POyn87GM2KZ2MyhiFPZqe+mdjDYyi/GrVPU8K7c0vsbTzAAACJNJNt2S1tvUkgPLs7M45Y2bpwbjhoPwVs3Vr/fL1L1nVsWItxnO1yr9+bk5Rsc6zYa6GwKtgUbAq2RVWwKtgVYVDAq2QVbAq2FVbAq2BVsDJyV+0Yb6ej95Exr5s9zKnnR3vfcf4nSj5XhP2HjDvWOc1x8820XAgipjNxaadmi0XKqKoqpnXBNMTGUtvQq6cVLr5GfV4e/F63FcfkufXTozk+h7sQABy/dAyk6OGVGLtPENwfDuS1z67xXNJm1hKNKvOehq4u5o0ZR0vNGdNzFWwKtgVbAq2RVWwKtgVYVVgVbIKtgVbCqtgVbAq2QQBlZK/aMN9PR+8iSvmz3MqedHe99yh4nSj5XhT2HjDvWOc1tz51touRUNkVFyDMyXU1yjwq65/wC+w6/BF7Kuq3PTr/Pzoa+Ip1RLZHfagAA8z7oeK08Yqd9VGlGNuCcryfmceo6eEpyt59bmYurO5l1OWbNpqqtgVbAq2RVWwKtgVbCqsCGyCjYFWwqrYFWwKtgQQANtmng3iMfgqa+GhUfzIPTl5ovrPO7Vo0TL0tU6VcQ9uylLwYrhd+pf1Pk+Fq8rdNPXPp/67uHjXMtc2cFtouYqi5FRcg+mFnozg+VLoer1mxg7mhfoq7fXUxuU50TDeH2DmgADxvOOvumMxc/lpxXNF6C80UdmzGVuI7HGvTncme1rGz0earYFWyKq2BVsCrYVVgQ2BVsgq2FVbAq2BVsCpAAAeqdzHNyWHhLG1ouNStHRpQkvChQum5PgcrLoS4bGhirsVTow38NayjSl02MracnbYtS9p8Xj8Rx13ONkaodm1Ro0se5pPVDZM1VuYqi5MxFyZq6GnK6T4UmfcW69OiKuuM3KmMpyWM0APDcTU0p1JeVOUuttnciMoycOqc5mXxbKirZFVbAo2BVsKhgVbAzMJkfFV0nSwtepF7JRpy0H+9a3nPOq5TTtlnTbqq2RLJeamUOJVfR9pjx9veZcRc3UPNTKHEqvo+0cfb3l4i5uqvNPKHEqvo+0cfb3jiLm6q80socRq+j7Rx9veOIubqP8I5R4jW9D2k4+3vHE3N0/wjlHiNb0PaOPt7xxNzdffC5j5RqtLvXc15VWpTjFc6TcupEnEW46VjD3J6Hb5s9z2lhpRrYmSxNWNpRglbD05cNnrm+V2XJvmrdxU1RlTqhtWsLFOurXLp8bi73jF879SPmcfwhExNu1PfPyj6upas9NTAucRtIuQQRUXJmqCKi5jmN7gnenT+al1aj7LAznhqO6HMvRlXL7m28wDwiorNrgbXUzuQ4cqNgVbAq2BVsKqwMzI+Sq2OqqjRjd7ZSeqFOPlSe8jC5ciiM5Z0W5rnKHqWQsz8LgUpyiq9Za3WrJWi/iR2R7eU5d/FTMZzOUOlaw1NPRnLdzxsVsu+bUjkV8KWadVOc/na3IsVSp3+vJfWjz/VqdyWXET1nf68l9aH6tTuScRPWd/ryX1ofq1O5JxE9Z3+vJfWh+rU7knET1nf68l9aJ+rUbknJ560fpBeS+tD9Xo3JOTz1qyyjwQ62edXDG7R8ZZRh+uWNWxMp7XZcC1I51/G3r2qqdXVGx7UWqadj4XNR6IuRVbkEGKhFVuQRcit7k73qHM+1n2HBv7Wju+bmX/aSyTeeQB4jlmlueJxUPJr1UubTdvMdq3OdET2OLcjKuY7WC2ZMVWwKtgVYVNKnKpKMIRcpzkoRitspt2SXSyTOUZyRGeqHtObuR6eTcMqas5u0q1RbalTk5FsSOLisTERNyrZDsWLOjEUxtWrVnN3ezeW8j5TEYmu/VnVs6I6nRooimNT5muzAAACLkEXIqGyKi5BVsxzVBFRcmaoIIuTNUNmKobIqrZB0WDjanTXxV2H22Cp0cPRHZHo5V2c65732Np5gHkmfuG3LH1nvVYwqrmcdF+lCR1cNVnbhysTTlclzjZ7vBVsCrYVDA6nubYFVsdujV1h6cqi4N0dox80pPoNbFVZUZdbZwtOdefU9MyhPWo8Gt858jwrdmaotx3u3Yp1ZsM5DYAAACCKi5BW5iqLkVFyCCKgioMVRcmYrciouRUXIqacdKUY+U0utmVuiblcUR0zl8UqnRiZdMlY+9iMoyhxklADge6lgtWGxKWxyoTfP4UOyfWb2Dq20+LRxlOyrwefNm80VWwqrAq2Qd73JF/mY5/FodtT2GnjNlPj8m5g9tXh83a4z3yXR2I+L4Qn/cVeHpDt2uZD4Gk9QCLkEXIqLkVFyCGyZqrcxVFyZiCKgiouRUXIIbMVVbIqCKzsj0tKppb0Ffpepes63A1jTv6c7KY851R82tiq8qMutvD6xzQABg5cybHGYeth5atOPgy8iotcZdDSM7dehVFTC5Rp0zS8RxVCdGc6VSLhOnJwlF70l/e07ETExnDkTExOUvgyohsCrZB33cj8fH/Nw/bVNPGbKfH5N3B7avD5u0xnvkujsR8Xwh+4q8PSHbtcyHxNJ6IuRUXIKtkVDZiqLkEEVFyZqgiouYiLkVVsiouQRcioIqCDocnYfc6aT8aXhS5HwH2fBuFnD2IirnTrn6eDlX7mnXq2Mo6DxAAADmM8M0449brTcaeJiraT8StHejO2x8D7d7YsX5t6p2Ne/Yi5rja8synk6vhJaFejOi72TkvAl82WyXQzo010166Zc6qiqjnQw2zJiq2B3/AHIvHx/zcP21TSxmynx+Tdwe2rw+btcb75Lo7EfF8IfuKvD0h27PMhjmi9UNkVFyCLkVFyKrcmYi5jmqLkVFyZiLkzVDZjmqGyZqi5MxBFEr6krvgWtsRE1TlGuSdTa5Oyc01OorW1xjy8LPouDeCqoqi7ejZsj5z9GlfxETGjT8W1PoWiAAAAABWcFJNNKSe1NXTAwZZEwjd3gsM3wuhSb7DPjK+uWHF0dUI/QOD4jhfs9L2Dja96Ti6N2GRhMn0KGk6NClR0raW5U4U9K17Xste19ZJqqq2ysU007IYeO98l0diPluEf3NXh6Q6FnmQx2zReqLkFbmOaoIqGyK21J0dGN9yvZXvo3vY+mtVYLi6dLQzyjqaNUXc5yz81tKh8l6B6aWA/4/4scr3b5mlQ+R9AmlgOu3/EyvdvmaVD5H0BpcH9dv+K5Xu3zRpYfho+gNPg/rt/xMr3b5ieH+R9ARVwfM5Rxf8TK92+b7d7U/g4fwxNnklj/HT8IefGV70ne1P4OH8MRyTD/46fhBxte9J3tT+Dh/DEckw/8Ajp+EHG170rwpqOyKjzJI9aLdFHNiI7mM1TO2VjNAAAAAAAAAAAAanHe+S6OxHy/CP7mrw9Ib1nmQxrmg9kXIIuRUEVBiqLkzFWyKi5FRciouYi1HxofOj2npZ9rT3x6pVzZdOffOMAAAAAAAAAAAAAAAANPj/fJdH8qPleEv3NXh6Q37HMhjXNB7IuTMQRUEVFyKi5BDZirIwWEdZvXaK2v1I3sDgasVVOvKmNs/KHldvRbjtZ8skwtqlJPhdmdirgOzNOVNU5+H0asYurPXENTiKLpycZbV1NcJ87icPXYuTbr2+va3qK4rpzhWj40PnR7TCx7Wnvj1Wvmy6g+/cYAAAAAAAAAAAAAAAAajKUbVHypP1eo+X4Vp0cRM9cRPy+Tfw850MS5zc3ugiouY5iLkVVsiouQRcit3kdrctW3Sd+f/AMsfWcDTTOG1bc5z/O7JzsVnxjOOq1mny41pQ4dF35r6vWfM8PTHGUR05T66vm38HnoywcLHSqU18aPVfWcnC0TXfopjrj1bNycqJnsdMfeOOAAAAAAAAAAAAAAAAMXH4fdI3XjR2cq4DncI4Sb9vOnnRs7ex7WbmhOvY0zPlZ1OircxEXIqGyKhsxVFyCCK++ExcqTutae2L2M3MHjbmFqzp1xO2PzZLyu2ouRrZ8ssK2qm78r1HXq4ep0f6aJz7Z1NaMHOeuWrrVXOTlJ3b/uxwL16u9XNdc65blNMUxlDZ5IwjX+bJb1ork8o73A2CmP9euP+v1+jTxV3P+iPFtT6FpAAAAAAAAAAAAAAAAABi4vBRqa14MuFbHznOxnB1vEf1Rqq6+vve9q/NGroaqvhJw2xuuGOtHzuIwN+zzqdXXGuPt4t2i7RVsljXNLN6ouRUEVBAAAfWjh51PFi3y73We9jC3r/ALOmZ7ej47GFdymjnS2mEyWo2lNqT8leKufhPoMHwNTbnTvTnPV0ff0aV3FTOqnU2R3GoAAAAAAAAAAAAAAAAAAAAA+NXC05+NBPl2PrRrXcHYu8+iO/p+Ma3pTdrp2Sxp5JpvY5R6U15zQr4Ew9XNmY/O17Ri6425Pi8jcFTrjf1mtVwDHRc8vuz5Z7osjfK+j/AFEcA9dzy+5yz3X0hkiC2yk+pI96OA7Ec6qqfh9GM4uvoiGTSwNKOyC55eF2m7a4Ow1vm0R46/V41X7lW2WQbryAAAAAAAAAAAAAAAAAAAAAAAAAAAAAAAAAAAAAAAAAAAAAAAAAAAABcCNICNMCNMBugDdAG6ATpgNICbgSAAAAAAAAAAAAAAAAAAKNgVbAo2BVsCNICNIBpANICykBKYF0wLJgXTAkAAAAAAAAAAAAAAABDiBRwAq4AVcAI0AI0AGgA0AJUALKAFlAC6iBYAAAAAAAAAAAAAAAAAAAACwEWAWAWAWAWAkAAAAAAAAAAAAAH//Z;" vertex="1" parent="1">
          <mxGeometry x="520" y="60.69999999999999" width="54" height="59.3" as="geometry" />
        </mxCell>
        <mxCell id="q4BO0xPQDjEm5LAo56Z_-17" value="" style="shape=image;verticalLabelPosition=bottom;labelBackgroundColor=default;verticalAlign=top;aspect=fixed;imageAspect=0;image=data:image/png,iVBORw0KGgoAAAANSUhEUgAAASwAAACoCAMAAABt9SM9AAAAulBMVEX///8xYZIAAAAJUIgASoUuX5Fzjq8oXI80NDQlWo4aVYsfV4wWU4r29vbc4+vp6emysrLu7u6np6d7e3uKioqgoKBSUlKSkpKKobx1dXWywdNaWlrr6+vh4eHBwcFjY2PW1tbT3OZKSkrp7vMlJSU5Z5ahoaE9PT3Ly8ssLCwQEBCYmJjBzdtXe6NtbW24xtZegKZJcp2arsWEnbmktco5OTkaGhq6urp3krIARYJafqWCgoNDbZoAQH9DZ/6HAAAK1klEQVR4nO2ba2OiOhCGYyIil+C1glgVxFu936q29fz/v3UmgAi47W53T2V7nOdDhUgxvE4mM5NICIIgCIIgCIIgCIIgCIIgCIIgCIIgCIIgCIIgCIIgCIIgCIIgCIIgCIIgCIJ8R0ptp13KuhN/CbztOE6Jx1pK40P5MHagyTFbNGSyqN65YpVqNxKjVT88QtO4eW6hxeClXywWJ/5Rr5x1h7OD1wJNGt1ub+8fPtVH4qVRq9ffuqBVq+qEJsfbZaHrfpxtlzOjAw/fKkdjq9QxfaWm7cRV3HBnM9fwNSuDfosb9/Lv4AAWJJTyZkvbnrmeaOPlRUW0bLZby3aFQO7gH6brOtNPlgGnVTCuSqbdzoQx2BDoYg2YrmqaqjNlZfnyzOZMVWRZ0Rhbb0DCmSznAElmpxl4uRHdP2bd95vja2UzRcqFSLLyYhOyYlFLTtLYlhP+qoWnbA5q9uiE//z2/ytM2iPEYrk46o54JyXRlFMUEHCrh2ey4gq1uln3/sZQOibLpFbympCTnEvDLFBLPdsac0mF0vbPP+B/xAEMi6eEUQ1iaVda5XLaipDj+Q1J80iTPmTd/5vSpFWySyojH4nLrqUSahUIWZ+VVY6gdDPr/t+UPnXISUpIorukcD0IA5uziBeZVo60aSvr/t8STinhSTOSBsT7sWEBbEZ2oduSFPjvRtYPcEtKtJgec4qVHpdJJSND1Di/L8sSA2mpJvRQZ2T1zigUClnEDeMHYVl35bPaECrZCTuSwGA06Uc6BW+rXmRaYJfTrB/glrQhH94lwk/pJMYlRPGafCWZpKlqfhOOUmkNmdJdlWp8sRKWJRcgRtVPx83OGqRcl3bauYZhEMMfh/KWlO8rKC1dDUPw71bBCN7dJLwZxA0Bni+WZpMavavkkEMAP0tIomwIKODZ28IGcsbYCAWTI9b8JCILXyzdIM+jrPt/W/o0FVVpO0Lcuc62S2seyhIaFsSqkEu/DsJhKCbD+td0ylha28J258ab4NtbHS9Nnvc1H/0hXVohekosi8lCGmLFgwiIQb2Xo7HTV4EpgqGN6ZfUlt0Ty8un9SCflzdh02ydzytr0SQFTcZL4Ss++idM4YHX8WlP2ZGtUEi2d7pFNrFxSAwm6xpkjv6MAC6r/iUuy2BsE1RrbYkFkmyZ7pdnwTsM2MnzL8pCrDEdBuLEfJbln2saGM/Fn0ka4Xr4vlBQ90ixF96k2xsBz8/Preqf92it2udDT4L0ipACm18GncVyPCuxKhA7JKZDMRuG5gS+3Lj4M3DoIhoFizrKfpRViqKsIp1Op6Zp1hu09+Gn/QJcly4ntroiZMfW8Qu2+mtWYpHiJHTYMcs6i6XFnT84MzEo4XsXNQnQbBqNwiI93636UUxf/5V439Nj0nh5sGdFTTrzOZhbRmK90RLJ/VisnMrJRSxp7tuZFvg0nZN9VFS+iEWKxfc/qvUrmaSn5i4nfLkkNjsmr5ixVVZidWAwxctXIFbkw8AvxYyOeWIqUHyvD+7MoZ3zPWJiLegPP8Wn+0tp90DdJc5Xupu6IqfxjMR6pLVEwhP6pLNlxcQCGW1VyAQ+jrkQvkf3iInVFYeVw9SshplQu2zWqyLEqJRai5JodKrmFHRuPxLeJpXy9OC3TatO8A82TH1xeWQtPeeumJGRWORpEnfjokLzGoYSIrSKB6wyJzlJEnEWZNucmtEtYmLtGyIcKTZrDdoSi7Bd2jUfanRUItPJft+flCot2qvVRrTUr5MD7dB+r0acp0ltWqN9x7+FnYMIa24tg5yLMznd4yObZSVWnT6SWKAFk97gLNY6ql0FRgempfuN6pIM6WVBOhKLNyFsewhmyVIRkqEw1ea+f+vWiFg/c0RL5+nJBBdQFLHGY7AVgC9osIWAz7ZrLZ9npy1YmMcG6R5b2Ykl6ixH+UdiXdVMFU7W8gkMEfofr/sVJw2fEYV7Vc5LPo9w8vYUHE+FnMJndc5Rf5kKsfx8qfsc3qd3KbxyyG9Oebb2OIuFEgHb7MQitEtmFwMCdzoPxQLHlKyZgmnNIOhxX+xkdaY4qfuY5UexuHb2Md0uWFmojWgTYr1FubcvliPeiuK1QyolcNfagChK2mcVmJuZWKLQcjEgkRsq51GYWrkQZdJ5gSwVeNR49b0YnwLN6GTaF7MjbbxVx/7zCrG60eYbfxiK3RJt2gy0rjev6mPw3V3PhgM1q9lQjIxDLHgIw6mcH35u0mv4W+JCaGFD8Bl/rIRY9cn56GEPf9odc9GnVPgmX6woONsLsYTfc2h9+OAzfHgkBXUWu9lWhxR1m+yvAcadmVjX4zAo+oH9pLTyIy+YumHkJHZnJcSqRie1S+5TFwNOiFU/B60VeharkihebFk8zLL0HVFTEfwRrshOrAWMw4ssYFrkVfWtKFkW9AWEaNp24dkT20oTYrWjYHU/Jb0wvhDO3hdrfH7XjMQio/Nc0QRTtEXqF1HQl2STFGYmppfsxBrDONxe1NIsUVDW8uDpr5fEoPMepND+hFcZh2MxIRbpToKgQnwHi8n5I8B6Fl2/tQwOjJvF4tlnwTgshxfBK9diEbynQdoAyWDh4uNhDHhZikX6o0Rc+jITlSML0lj9Si0p7/l7jZqLhtiLGxhOPzGL8R6djsfVkdCnNHmqjp3x0J8PhrRmVsCkaPGZNvhzJBZMrc2OM64HgcSSMSscd+6A+bW+ORuEjsw4MlHKhe6ujBg3USlkCB7l4uLBTfBwrBjp5VZJ9JpPF61uveqUDjQYjtVUGeuwGD23hr6AvLrojXrN4H7lt5pobI8dsL2+SdrDUOSS2SuO3pzgZHZi+VPhWFjJeSU0sl0ur70ej4VBnr3mdBDQzav5Cy9fqk4KUdSKFvFVmHwakLDA88EXPEguHqou8WKzVe/Ta2GP5nlv5QdrjjNrtR6c1kc78uzcPq4Hg9PKmhEjB0PQ29lxPtmJP6MJFhIakXb0gyMKvnf7sksvV58g9II0ZGfvrILYzfbpWl+UUj7Q392/y9fWzy/6QkpgWoYqjEhZixIXpYsSpP9SLuHL/FUKm8mKyl70rUf46DdWLEw6bHPeNr/xPrg6PLYNusgDTh6e/fKKrYpl1SuxPOt4tGwRVHcmv7UU1mnBzLBfOP/tA9wSTvsim9cljxxE1OMtC6rEViQllnIZAOMu/d39t5x/84Xsg5jcjSWHoMchrvLPC2ODJbS76RXY8rRcHtYbwqv9B0s535QabQiP26Gi9sKNmSuCFzMlFuRtz+GPn1rVb24ef4SoDzT7FF56QVTEq3uaEks3CK21HT9Oum+q4tdgDin3xGur9UTpZJ+2LI/TYdb9/EsIf6daGQ9rvdGiSkY05eCl2MoqkiQtFsSkX7QZ5H9ALyWWvIKc985/8/surdTmLQizzPva7PcJFpR7ibWwXVSgQtK80QqPF0shzOrd2c7IX8ekbRIvaIkw665+JvAZqsltgZJ2WUFF0qR22EhzjBzex6Fv8QV88O93tvP9M4jCzSV2kHP+tnnkHZ6oQyw9dFiyBx4fk513MUWVy2KqpumDnVjYe8q6R38xFQpeixj2binWWR4o5jof4VA6cvyjdn1P96jVh4z3orjVFcvPe6xk/ZSyX2/vTZ2sO/JN+O6rMQiCIAiCIAiCIAiCIAiCIAiCIAiCIAiCIAiCIAiCIAiCIAiCIAiCIAiCIAhyO/4FNUnWP/K/RNQAAAAASUVORK5CYII=;" vertex="1" parent="1">
          <mxGeometry x="720" y="25.6" width="180" height="100.8" as="geometry" />
        </mxCell>
        <mxCell id="q4BO0xPQDjEm5LAo56Z_-18" value="" style="shape=image;verticalLabelPosition=bottom;labelBackgroundColor=default;verticalAlign=top;aspect=fixed;imageAspect=0;image=data:image/png,iVBORw0KGgoAAAANSUhEUgAAASwAAACoCAMAAABt9SM9AAAAulBMVEX///8xYZIAAAAJUIgASoUuX5Fzjq8oXI80NDQlWo4aVYsfV4wWU4r29vbc4+vp6emysrLu7u6np6d7e3uKioqgoKBSUlKSkpKKobx1dXWywdNaWlrr6+vh4eHBwcFjY2PW1tbT3OZKSkrp7vMlJSU5Z5ahoaE9PT3Ly8ssLCwQEBCYmJjBzdtXe6NtbW24xtZegKZJcp2arsWEnbmktco5OTkaGhq6urp3krIARYJafqWCgoNDbZoAQH9DZ/6HAAAK1klEQVR4nO2ba2OiOhCGYyIil+C1glgVxFu936q29fz/v3UmgAi47W53T2V7nOdDhUgxvE4mM5NICIIgCIIgCIIgCIIgCIIgCIIgCIIgCIIgCIIgCIIgCIIgCIIgCIIgCIIgCIJ8R0ptp13KuhN/CbztOE6Jx1pK40P5MHagyTFbNGSyqN65YpVqNxKjVT88QtO4eW6hxeClXywWJ/5Rr5x1h7OD1wJNGt1ub+8fPtVH4qVRq9ffuqBVq+qEJsfbZaHrfpxtlzOjAw/fKkdjq9QxfaWm7cRV3HBnM9fwNSuDfosb9/Lv4AAWJJTyZkvbnrmeaOPlRUW0bLZby3aFQO7gH6brOtNPlgGnVTCuSqbdzoQx2BDoYg2YrmqaqjNlZfnyzOZMVWRZ0Rhbb0DCmSznAElmpxl4uRHdP2bd95vja2UzRcqFSLLyYhOyYlFLTtLYlhP+qoWnbA5q9uiE//z2/ytM2iPEYrk46o54JyXRlFMUEHCrh2ey4gq1uln3/sZQOibLpFbympCTnEvDLFBLPdsac0mF0vbPP+B/xAEMi6eEUQ1iaVda5XLaipDj+Q1J80iTPmTd/5vSpFWySyojH4nLrqUSahUIWZ+VVY6gdDPr/t+UPnXISUpIorukcD0IA5uziBeZVo60aSvr/t8STinhSTOSBsT7sWEBbEZ2oduSFPjvRtYPcEtKtJgec4qVHpdJJSND1Di/L8sSA2mpJvRQZ2T1zigUClnEDeMHYVl35bPaECrZCTuSwGA06Uc6BW+rXmRaYJfTrB/glrQhH94lwk/pJMYlRPGafCWZpKlqfhOOUmkNmdJdlWp8sRKWJRcgRtVPx83OGqRcl3bauYZhEMMfh/KWlO8rKC1dDUPw71bBCN7dJLwZxA0Bni+WZpMavavkkEMAP0tIomwIKODZ28IGcsbYCAWTI9b8JCILXyzdIM+jrPt/W/o0FVVpO0Lcuc62S2seyhIaFsSqkEu/DsJhKCbD+td0ylha28J258ab4NtbHS9Nnvc1H/0hXVohekosi8lCGmLFgwiIQb2Xo7HTV4EpgqGN6ZfUlt0Ty8un9SCflzdh02ydzytr0SQFTcZL4Ss++idM4YHX8WlP2ZGtUEi2d7pFNrFxSAwm6xpkjv6MAC6r/iUuy2BsE1RrbYkFkmyZ7pdnwTsM2MnzL8pCrDEdBuLEfJbln2saGM/Fn0ka4Xr4vlBQ90ixF96k2xsBz8/Preqf92it2udDT4L0ipACm18GncVyPCuxKhA7JKZDMRuG5gS+3Lj4M3DoIhoFizrKfpRViqKsIp1Op6Zp1hu09+Gn/QJcly4ntroiZMfW8Qu2+mtWYpHiJHTYMcs6i6XFnT84MzEo4XsXNQnQbBqNwiI93636UUxf/5V439Nj0nh5sGdFTTrzOZhbRmK90RLJ/VisnMrJRSxp7tuZFvg0nZN9VFS+iEWKxfc/qvUrmaSn5i4nfLkkNjsmr5ixVVZidWAwxctXIFbkw8AvxYyOeWIqUHyvD+7MoZ3zPWJiLegPP8Wn+0tp90DdJc5Xupu6IqfxjMR6pLVEwhP6pLNlxcQCGW1VyAQ+jrkQvkf3iInVFYeVw9SshplQu2zWqyLEqJRai5JodKrmFHRuPxLeJpXy9OC3TatO8A82TH1xeWQtPeeumJGRWORpEnfjokLzGoYSIrSKB6wyJzlJEnEWZNucmtEtYmLtGyIcKTZrDdoSi7Bd2jUfanRUItPJft+flCot2qvVRrTUr5MD7dB+r0acp0ltWqN9x7+FnYMIa24tg5yLMznd4yObZSVWnT6SWKAFk97gLNY6ql0FRgempfuN6pIM6WVBOhKLNyFsewhmyVIRkqEw1ea+f+vWiFg/c0RL5+nJBBdQFLHGY7AVgC9osIWAz7ZrLZ9npy1YmMcG6R5b2Ykl6ixH+UdiXdVMFU7W8gkMEfofr/sVJw2fEYV7Vc5LPo9w8vYUHE+FnMJndc5Rf5kKsfx8qfsc3qd3KbxyyG9Oebb2OIuFEgHb7MQitEtmFwMCdzoPxQLHlKyZgmnNIOhxX+xkdaY4qfuY5UexuHb2Md0uWFmojWgTYr1FubcvliPeiuK1QyolcNfagChK2mcVmJuZWKLQcjEgkRsq51GYWrkQZdJ5gSwVeNR49b0YnwLN6GTaF7MjbbxVx/7zCrG60eYbfxiK3RJt2gy0rjev6mPw3V3PhgM1q9lQjIxDLHgIw6mcH35u0mv4W+JCaGFD8Bl/rIRY9cn56GEPf9odc9GnVPgmX6woONsLsYTfc2h9+OAzfHgkBXUWu9lWhxR1m+yvAcadmVjX4zAo+oH9pLTyIy+YumHkJHZnJcSqRie1S+5TFwNOiFU/B60VeharkihebFk8zLL0HVFTEfwRrshOrAWMw4ssYFrkVfWtKFkW9AWEaNp24dkT20oTYrWjYHU/Jb0wvhDO3hdrfH7XjMQio/Nc0QRTtEXqF1HQl2STFGYmppfsxBrDONxe1NIsUVDW8uDpr5fEoPMepND+hFcZh2MxIRbpToKgQnwHi8n5I8B6Fl2/tQwOjJvF4tlnwTgshxfBK9diEbynQdoAyWDh4uNhDHhZikX6o0Rc+jITlSML0lj9Si0p7/l7jZqLhtiLGxhOPzGL8R6djsfVkdCnNHmqjp3x0J8PhrRmVsCkaPGZNvhzJBZMrc2OM64HgcSSMSscd+6A+bW+ORuEjsw4MlHKhe6ujBg3USlkCB7l4uLBTfBwrBjp5VZJ9JpPF61uveqUDjQYjtVUGeuwGD23hr6AvLrojXrN4H7lt5pobI8dsL2+SdrDUOSS2SuO3pzgZHZi+VPhWFjJeSU0sl0ur70ej4VBnr3mdBDQzav5Cy9fqk4KUdSKFvFVmHwakLDA88EXPEguHqou8WKzVe/Ta2GP5nlv5QdrjjNrtR6c1kc78uzcPq4Hg9PKmhEjB0PQ29lxPtmJP6MJFhIakXb0gyMKvnf7sksvV58g9II0ZGfvrILYzfbpWl+UUj7Q392/y9fWzy/6QkpgWoYqjEhZixIXpYsSpP9SLuHL/FUKm8mKyl70rUf46DdWLEw6bHPeNr/xPrg6PLYNusgDTh6e/fKKrYpl1SuxPOt4tGwRVHcmv7UU1mnBzLBfOP/tA9wSTvsim9cljxxE1OMtC6rEViQllnIZAOMu/d39t5x/84Xsg5jcjSWHoMchrvLPC2ODJbS76RXY8rRcHtYbwqv9B0s535QabQiP26Gi9sKNmSuCFzMlFuRtz+GPn1rVb24ef4SoDzT7FF56QVTEq3uaEks3CK21HT9Oum+q4tdgDin3xGur9UTpZJ+2LI/TYdb9/EsIf6daGQ9rvdGiSkY05eCl2MoqkiQtFsSkX7QZ5H9ALyWWvIKc985/8/surdTmLQizzPva7PcJFpR7ibWwXVSgQtK80QqPF0shzOrd2c7IX8ekbRIvaIkw665+JvAZqsltgZJ2WUFF0qR22EhzjBzex6Fv8QV88O93tvP9M4jCzSV2kHP+tnnkHZ6oQyw9dFiyBx4fk513MUWVy2KqpumDnVjYe8q6R38xFQpeixj2binWWR4o5jof4VA6cvyjdn1P96jVh4z3orjVFcvPe6xk/ZSyX2/vTZ2sO/JN+O6rMQiCIAiCIAiCIAiCIAiCIAiCIAiCIAiCIAiCIAiCIAiCIAiCIAiCIAiCIAhyO/4FNUnWP/K/RNQAAAAASUVORK5CYII=;" vertex="1" parent="1">
          <mxGeometry x="730" y="279.4" width="180" height="100.8" as="geometry" />
        </mxCell>
        <mxCell id="q4BO0xPQDjEm5LAo56Z_-20" value="" style="edgeStyle=orthogonalEdgeStyle;rounded=0;orthogonalLoop=1;jettySize=auto;html=1;" edge="1" parent="1">
          <mxGeometry relative="1" as="geometry">
            <mxPoint x="600" y="75.28999999999999" as="sourcePoint" />
            <mxPoint x="717" y="76.28999999999999" as="targetPoint" />
          </mxGeometry>
        </mxCell>
        <mxCell id="q4BO0xPQDjEm5LAo56Z_-25" value="" style="shape=partialRectangle;whiteSpace=wrap;html=1;bottom=0;right=0;fillColor=none;" vertex="1" parent="1">
          <mxGeometry x="-30" y="-80" width="960" height="550" as="geometry" />
        </mxCell>
        <mxCell id="q4BO0xPQDjEm5LAo56Z_-26" value="&lt;div style=&quot;&quot;&gt;&lt;b style=&quot;background-color: initial;&quot;&gt;&lt;font style=&quot;font-size: 38px;&quot;&gt;Parallel Processing&lt;/font&gt;&lt;/b&gt;&lt;/div&gt;" style="shape=partialRectangle;whiteSpace=wrap;html=1;top=0;left=0;fillColor=none;align=center;verticalAlign=middle;" vertex="1" parent="1">
          <mxGeometry x="-30" y="-80" width="960" height="550" as="geometry" />
        </mxCell>
        <mxCell id="q4BO0xPQDjEm5LAo56Z_-39" value="" style="edgeStyle=segmentEdgeStyle;endArrow=classic;html=1;curved=0;rounded=0;endSize=8;startSize=8;" edge="1" parent="1">
          <mxGeometry width="50" height="50" relative="1" as="geometry">
            <mxPoint x="900" y="310" as="sourcePoint" />
            <mxPoint x="1040" y="210" as="targetPoint" />
            <Array as="points">
              <mxPoint x="1040" y="310" />
              <mxPoint x="1040" y="260" />
            </Array>
          </mxGeometry>
        </mxCell>
        <mxCell id="q4BO0xPQDjEm5LAo56Z_-40" value="" style="edgeStyle=segmentEdgeStyle;endArrow=classic;html=1;curved=0;rounded=0;endSize=8;startSize=8;" edge="1" parent="1">
          <mxGeometry width="50" height="50" relative="1" as="geometry">
            <mxPoint x="910" y="80" as="sourcePoint" />
            <mxPoint x="1040" y="200" as="targetPoint" />
            <Array as="points">
              <mxPoint x="1040" y="80" />
            </Array>
          </mxGeometry>
        </mxCell>
        <mxCell id="q4BO0xPQDjEm5LAo56Z_-41" value="" style="shape=singleArrow;whiteSpace=wrap;html=1;" vertex="1" parent="1">
          <mxGeometry x="1050" y="170" width="190" height="60" as="geometry" />
        </mxCell>
        <mxCell id="q4BO0xPQDjEm5LAo56Z_-46" value="" style="edgeStyle=orthogonalEdgeStyle;rounded=0;orthogonalLoop=1;jettySize=auto;html=1;" edge="1" parent="1" source="q4BO0xPQDjEm5LAo56Z_-44" target="q4BO0xPQDjEm5LAo56Z_-2">
          <mxGeometry relative="1" as="geometry">
            <mxPoint x="-160" y="330" as="targetPoint" />
            <Array as="points">
              <mxPoint x="-160" y="285" />
              <mxPoint x="-159" y="300" />
            </Array>
          </mxGeometry>
        </mxCell>
        <mxCell id="q4BO0xPQDjEm5LAo56Z_-44" value="Start Pipeline" style="shape=ext;double=1;rounded=0;whiteSpace=wrap;html=1;fontStyle=1;fontSize=23;" vertex="1" parent="1">
          <mxGeometry x="-270" y="160" width="220" height="80" as="geometry" />
        </mxCell>
        <mxCell id="q4BO0xPQDjEm5LAo56Z_-48" value="" style="edgeStyle=orthogonalEdgeStyle;rounded=0;orthogonalLoop=1;jettySize=auto;html=1;entryX=0;entryY=0.5;entryDx=0;entryDy=0;exitX=0.5;exitY=0;exitDx=0;exitDy=0;" edge="1" parent="1" source="q4BO0xPQDjEm5LAo56Z_-44" target="q4BO0xPQDjEm5LAo56Z_-10">
          <mxGeometry relative="1" as="geometry">
            <mxPoint x="-250" y="60.7" as="sourcePoint" />
            <mxPoint y="118.70000000000046" as="targetPoint" />
            <Array as="points">
              <mxPoint x="-160" y="78" />
            </Array>
          </mxGeometry>
        </mxCell>
        <mxCell id="q4BO0xPQDjEm5LAo56Z_-57" value="" style="shape=partialRectangle;whiteSpace=wrap;html=1;bottom=0;right=0;fillColor=none;" vertex="1" parent="1">
          <mxGeometry x="-400" y="-160" width="1880" height="840" as="geometry" />
        </mxCell>
        <mxCell id="q4BO0xPQDjEm5LAo56Z_-59" value="" style="sketch=0;points=[[0,0,0],[0.25,0,0],[0.5,0,0],[0.75,0,0],[1,0,0],[0,1,0],[0.25,1,0],[0.5,1,0],[0.75,1,0],[1,1,0],[0,0.25,0],[0,0.5,0],[0,0.75,0],[1,0.25,0],[1,0.5,0],[1,0.75,0]];outlineConnect=0;fontColor=#232F3E;fillColor=#E7157B;strokeColor=#ffffff;dashed=0;verticalLabelPosition=bottom;verticalAlign=top;align=center;html=1;fontSize=12;fontStyle=0;aspect=fixed;shape=mxgraph.aws4.resourceIcon;resIcon=mxgraph.aws4.managed_workflows_for_apache_airflow;" vertex="1" parent="1">
          <mxGeometry x="-30" y="510" width="130" height="130" as="geometry" />
        </mxCell>
        <mxCell id="q4BO0xPQDjEm5LAo56Z_-60" value="" style="shape=partialRectangle;whiteSpace=wrap;html=1;top=0;left=0;fillColor=none;" vertex="1" parent="1">
          <mxGeometry x="-400" y="-160" width="1880" height="840" as="geometry" />
        </mxCell>
      </root>
    </mxGraphModel>
  </diagram>
</mxfile>
